v 35.0783 -0.3459 37.7429
vn 0.0845 -0.9948 0.0574
v 34.9581 -0.3389 37.9473
vn 0.0822 -0.9895 0.1192
v 34.7037 -0.3305 38.1321
vn 0.0391 -0.9928 0.1132
v 34.1849 -0.3196 38.2643
vn -0.0404 -0.9918 0.121
v 34.0858 -0.3197 38.2025
vn -0.1211 -0.9877 0.0993
v 33.8505 -0.3291 37.7025
vn -0.1246 -0.9902 0.0637
v 33.7983 -0.3424 37.1521
vn -0.1359 -0.9907 0.0084
v 33.8452 -0.3459 37.0455
vn -0.1007 -0.9946 -0.0256
v 33.9097 -0.3488 36.9669
vn -0.0883 -0.9939 -0.066
v 34.1708 -0.3559 36.8389
vn -0.042 -0.9967 -0.0701
v 34.2664 -0.3578 36.8162
vn -0.0263 -0.9955 -0.0911
v 34.46 -0.3607 36.8144
vn 0.0014 -0.9956 -0.0941
v 55.8583 -0.4872 0.0034
vn 0.0429 -0.9989 -0.0161
v 55.9796 -0.4767 0.2022
vn 0.1248 -0.9916 0.033
v 56.0123 -0.4527 0.5153
vn 0.0908 -0.9927 0.0791
v 55.872 -0.404 1.035
vn 0.0608 -0.9838 0.1687
v 55.7833 -0.3943 1.1036
vn 0.027 -0.9763 0.2145
v 55.6677 -0.3851 1.1507
vn -0.0062 -0.9655 0.2604
v 55.1904 -0.3608 1.1792
vn -0.0685 -0.9675 0.2434
v 54.9249 -0.3541 1.1109
vn -0.106 -0.9671 0.2314
v 54.8326 -0.3548 1.0503
vn -0.1293 -0.9734 0.1894
v 54.6604 -0.3661 0.8138
vn -0.187 -0.9718 0.144
v 54.6307 -0.3724 0.7204
vn -0.1724 -0.9781 0.1169
v 54.6077 -0.3791 0.6244
vn -0.1968 -0.9757 0.0961
v 54.6058 -0.3947 0.4314
vn -0.2002 -0.9782 0.0551
v 54.6399 -0.404 0.336
vn -0.1646 -0.9862 0.0187
v 58.2063 -0.3459 50.844
vn 0.0846 -0.9948 0.0574
v 58.086 -0.3389 51.0485
vn 0.0822 -0.9895 0.1192
v 57.8317 -0.3305 51.2332
vn 0.0391 -0.9928 0.1132
v 57.3128 -0.3196 51.3655
vn -0.0404 -0.9918 0.121
v 57.2138 -0.3197 51.3036
vn -0.1211 -0.9877 0.0993
v 56.9784 -0.3291 50.8037
vn -0.1246 -0.9902 0.0637
v 56.9262 -0.3424 50.2533
vn -0.1359 -0.9907 0.0084
v 56.9732 -0.3458 50.1466
vn -0.1007 -0.9946 -0.0256
v 57.0377 -0.3488 50.068
vn -0.0883 -0.9939 -0.066
v 57.2987 -0.3559 49.94
vn -0.042 -0.9967 -0.0701
v 57.3944 -0.3578 49.9173
vn -0.0263 -0.9955 -0.0912
v 57.5879 -0.3607 49.9155
vn 0.0015 -0.9956 -0.0941
v 78.9862 -0.4872 13.1045
vn 0.0429 -0.9989 -0.0161
v 79.1075 -0.4766 13.3033
vn 0.1248 -0.9916 0.033
v 79.1403 -0.4527 13.6164
vn 0.0908 -0.9927 0.0791
v 78.9999 -0.4039 14.1361
vn 0.0608 -0.9838 0.1686
v 78.9112 -0.3943 14.2048
vn 0.0269 -0.9763 0.2145
v 78.7956 -0.3851 14.2518
vn -0.0062 -0.9655 0.2604
v 78.3183 -0.3608 14.2804
vn -0.0685 -0.9675 0.2434
v 78.0528 -0.3541 14.212
vn -0.106 -0.9671 0.2314
v 77.9606 -0.3548 14.1514
vn -0.1293 -0.9734 0.1894
v 77.7884 -0.3661 13.915
vn -0.187 -0.9718 0.144
v 77.7586 -0.3723 13.8215
vn -0.1724 -0.9781 0.1169
v 77.7357 -0.3791 13.7255
vn -0.1968 -0.9757 0.0961
v 77.7337 -0.3947 13.5325
vn -0.2001 -0.9782 0.0551
v 77.7678 -0.404 13.4371
vn -0.1646 -0.9862 0.0187
v 36.4296 34.6825 35.5094
vn -0.4026 -0.6496 0.645
v 36.5376 34.4435 35.3153
vn -0.3663 -0.749 0.5522
v 36.653 34.433 35.3715
vn -0.3383 -0.7451 0.5748
v 58.4094 33.9892 46.3272
vn 0.0385 -0.9993 -0.0035
v 58.3493 34.017 46.6646
vn -0.0447 -0.9847 0.1685
v 58.2224 34.017 46.61
vn -0.0772 -0.9848 0.1554
v 50.3199 34.7183 8.9179
vn -0.7067 -0.5853 -0.3975
v 50.4904 34.4658 9.0344
vn -0.5893 -0.7106 -0.3845
v 50.4335 34.4559 9.1482
vn -0.6375 -0.6964 -0.3295
v 72.2897 33.9892 21.8239
vn 0.0187 -0.9992 0.0345
v 72.6128 34.0184 21.9067
vn 0.1792 -0.9825 0.0507
v 72.5637 34.0184 22.0225
vn 0.1347 -0.982 0.1325
v 37.4355 37.0248 34.4462
vn -0.0759 0.9955 0.0574
v 37.177 36.997 34.6713
vn -0.1215 0.9847 0.125
v 37.289 36.9971 34.752
vn -0.0936 0.9848 0.1461
v 58.0147 36.3315 47.7366
vn -0.3462 0.6496 0.6769
v 58.1256 36.5706 47.5441
vn -0.2853 0.749 0.5981
v 58.0181 36.5811 47.4741
vn -0.3191 0.7451 0.5857
v 51.3157 37.0248 9.9429
vn 0.0098 0.9953 -0.0965
v 51.0786 36.9957 9.7084
vn -0.1356 0.9825 -0.1277
v 51.0045 36.9956 9.81
vn -0.1278 0.98 -0.1525
v 73.6808 36.2957 22.151
vn 0.7178 0.6128 0.3305
v 73.4932 36.5482 22.0646
vn 0.6328 0.7106 0.3077
v 73.4249 36.5582 22.172
vn 0.6327 0.7141 0.2996
v 35.3983 35.6528 34.6987
vn -0.976 0 0.2178
v 35.3983 35.3612 34.6987
vn -0.976 0 0.2178
v 35.4488 35.1336 34.9251
vn -0.976 0 0.2178
v 35.5625 35.3684 35.4345
vn -0.976 0 0.2178
v 35.512 35.1408 35.2081
vn -0.976 0 0.2178
v 58.5247 35.6457 48.4418
vn 0.315 -0 0.9491
v 58.5247 35.3684 48.4418
vn 0.315 0 0.9491
v 58.7449 35.1408 48.3687
vn 0.315 0 0.9491
v 59.2403 35.3612 48.2043
vn 0.315 -0 0.9491
v 59.0201 35.1336 48.2774
vn 0.315 -0 0.9491
v 74.3269 35.6528 21.5714
vn 0.976 0 -0.2178
v 74.3269 35.3612 21.5714
vn 0.976 0 -0.2178
v 74.2763 35.1336 21.345
vn 0.976 0 -0.2178
v 74.1627 35.3684 20.8356
vn 0.976 0 -0.2178
v 74.2132 35.1408 21.062
vn 0.976 0 -0.2178
v 51.2005 35.6457 7.8283
vn -0.315 -0 -0.9491
v 51.2005 35.3684 7.8283
vn -0.315 0 -0.9491
v 50.9803 35.1408 7.9014
vn -0.315 0 -0.9491
v 50.4849 35.3612 8.0658
vn -0.315 -0 -0.9491
v 50.7051 35.1336 7.9927
vn -0.315 -0 -0.9491
v 36.1251 34.696 35.3008
vn -0.5164 -0.6783 0.5227
v 36.2208 34.6013 35.2729
vn -0.5015 -0.6921 0.5191
v 36.3215 34.5276 35.266
vn -0.4609 -0.7205 0.518
v 36.4271 34.475 35.2801
vn -0.4124 -0.7411 0.5298
v 58.7207 34.0184 46.4601
vn 0.1852 -0.9819 0.0391
v 58.649 34.0179 46.5751
vn 0.1415 -0.9831 0.1159
v 58.5609 34.0175 46.6462
vn 0.0852 -0.9849 0.1509
v 58.461 34.0172 46.676
vn 0.0174 -0.9853 0.1698
v 50.5431 34.7054 8.6224
vn -0.5568 -0.6437 -0.525
v 50.5562 34.6156 8.7189
vn -0.5527 -0.6597 -0.5093
v 50.5518 34.5457 8.8197
vn -0.5539 -0.6865 -0.4711
v 50.5299 34.4958 8.9249
vn -0.5669 -0.7047 -0.4266
v 72.4361 34.017 21.5181
vn 0.1023 -0.9844 -0.1434
v 72.5368 34.0175 21.6031
vn 0.1339 -0.9839 -0.1183
v 72.6009 34.0179 21.6943
vn 0.1641 -0.9838 -0.072
v 72.6262 34.0182 21.7954
vn 0.1816 -0.9833 -0.0077
v 37.1615 36.9956 34.2476
vn -0.1905 0.981 -0.0377
v 37.0997 36.9961 34.3682
vn -0.1722 0.9831 -0.0618
v 37.084 36.9965 34.4803
vn -0.1733 0.9849 0.0045
v 37.1098 36.9968 34.5813
vn -0.1546 0.9853 0.0724
v 58.3502 36.318 47.8905
vn -0.1828 0.6783 0.7117
v 58.3249 36.4127 47.794
vn -0.1874 0.6921 0.6971
v 58.279 36.4864 47.7041
vn -0.2073 0.7205 0.6617
v 58.2126 36.539 47.6208
vn -0.2424 0.7411 0.6261
v 51.5027 36.9971 9.6601
vn 0.0705 0.9844 -0.1615
v 51.3781 36.9965 9.6174
vn 0.0326 0.9839 -0.1756
v 51.2669 36.9961 9.6093
vn -0.0227 0.9838 -0.1778
v 51.1671 36.9958 9.6396
vn -0.0867 0.9833 -0.1597
v 73.8195 36.3086 21.8076
vn 0.7366 0.6437 0.2076
v 73.73 36.3985 21.846
vn 0.721 0.6597 0.2122
v 73.6458 36.4683 21.9017
vn 0.6889 0.6865 0.2328
v 73.5669 36.5183 21.9745
vn 0.6573 0.7047 0.2669
v 35.7964 35.0341 35.4181
vn -0.5531 -0.6065 0.5711
v 36.3021 34.8137 35.5549
vn -0.4273 -0.5957 0.6801
v 35.809 35.091 35.4747
vn -0.5148 -0.4474 0.7313
v 35.809 35.923 35.4747
vn -0.5148 0.4474 0.7313
v 36.3021 36.2003 35.5549
vn -0.4273 0.5957 0.6801
v 35.7964 35.9799 35.4181
vn -0.5531 0.6047 0.573
v 35.607 36.0014 34.569
vn -0.7932 0.5634 -0.2312
v 35.9864 36.2361 34.1398
vn -0.7413 0.5757 -0.3451
v 35.5943 35.9445 34.5124
vn -0.8331 0.4166 -0.364
v 35.5943 35.0696 34.5124
vn -0.829 -0.3954 -0.3955
v 35.9864 34.778 34.1398
vn -0.7487 -0.5172 -0.4147
v 35.607 35.0127 34.569
vn -0.7895 -0.5703 -0.2268
v 59.2442 35.0127 47.9587
vn 0.6061 -0.5634 0.5614
v 59.4173 34.778 47.4126
vn 0.7474 -0.5107 0.4249
v 59.2993 35.0696 47.9404
vn 0.7657 -0.3952 0.5074
v 59.2993 35.9445 47.9404
vn 0.7409 0.4163 0.5271
v 59.4173 36.2361 47.4126
vn 0.6727 0.5783 0.4614
v 59.2442 36.0014 47.9587
vn 0.6004 0.5703 0.5606
v 58.4186 35.9799 48.2327
vn -0.2055 0.6065 0.768
v 58.0413 36.2003 47.8693
vn -0.3636 0.5957 0.7162
v 58.3636 35.923 48.251
vn -0.3626 0.4474 0.8176
v 58.3636 35.091 48.251
vn -0.3626 -0.4474 0.8176
v 58.0413 34.8137 47.8693
vn -0.3636 -0.5957 0.7162
v 58.4186 35.0341 48.2327
vn -0.2071 -0.6047 0.769
v 73.9288 35.0341 20.852
vn 0.5522 -0.6126 -0.5655
v 73.4231 34.8137 20.7152
vn 0.4309 -0.6003 -0.6737
v 73.9162 35.091 20.7954
vn 0.5148 -0.4474 -0.7313
v 73.9162 35.923 20.7954
vn 0.5148 0.4474 -0.7313
v 73.4231 36.2003 20.7152
vn 0.4273 0.5957 -0.6801
v 73.9288 35.9799 20.852
vn 0.5531 0.6065 -0.5711
v 74.1182 36.0014 21.7011
vn 0.7895 0.5703 0.2268
v 73.7388 36.2361 22.1303
vn 0.7409 0.5804 0.3378
v 74.1308 35.9445 21.7577
vn 0.8331 0.4166 0.364
v 74.1308 35.0696 21.7577
vn 0.829 -0.3954 0.3955
v 73.7388 34.778 22.1303
vn 0.7487 -0.5172 0.4147
v 74.1182 35.0127 21.7011
vn 0.7881 -0.5732 0.2245
v 50.4809 35.0127 8.3114
vn -0.6004 -0.5703 -0.5606
v 50.3079 34.778 8.8575
vn -0.7416 -0.516 -0.4287
v 50.4259 35.0696 8.3297
vn -0.7657 -0.3952 -0.5074
v 50.4259 35.9445 8.3297
vn -0.7409 0.4163 -0.5271
v 50.3079 36.2361 8.8575
vn -0.6727 0.5783 -0.4614
v 50.4809 36.0014 8.3114
vn -0.5977 0.5732 -0.5605
v 51.3066 35.9799 8.0374
vn 0.2011 0.6126 -0.7644
v 51.6839 36.2003 8.4008
vn 0.3563 0.6003 -0.716
v 51.3616 35.923 8.0191
vn 0.3626 0.4474 -0.8176
v 51.3616 35.091 8.0191
vn 0.3626 -0.4474 -0.8176
v 51.6839 34.8137 8.4008
vn 0.3636 -0.5957 -0.7162
v 51.3066 35.0341 8.0374
vn 0.2055 -0.6065 -0.768
f 1//1 2//2 3//3
f 4//4 5//5 6//6
f 7//7 8//8 9//9
f 10//10 11//11 12//12
f 6//6 9//9 12//12
f 13//13 14//14 15//15
f 16//16 17//17 18//18
f 19//19 20//20 21//21
f 22//22 23//23 24//24
f 24//24 25//25 26//26
f 27//27 28//28 29//29
f 30//30 31//31 32//32
f 33//33 34//34 35//35
f 36//36 37//37 38//38
f 32//32 35//35 38//38
f 39//39 40//40 41//41
f 42//42 43//43 44//44
f 45//45 46//46 47//47
f 48//48 49//49 50//50
f 50//50 51//51 52//52
f 53//53 54//54 55//55
f 56//56 57//57 58//58
f 59//59 60//60 61//61
f 62//62 63//63 64//64
f 65//65 66//66 67//67
f 68//68 69//69 70//70
f 71//71 72//72 73//73
f 74//74 75//75 76//76
f 77//77 78//78 79//79
f 80//80 79//79 81//81
f 82//82 83//83 84//84
f 85//85 84//84 86//86
f 87//87 88//88 89//89
f 90//90 89//89 91//91
f 92//92 93//93 94//94
f 95//95 94//94 96//96
f 53//53 97//97 98//98
f 53//53 98//98 99//99
f 53//53 99//99 100//100
f 53//53 100//100 54//54
f 56//56 101//101 102//102
f 56//56 102//102 103//103
f 56//56 103//103 104//104
f 56//56 104//104 57//57
f 59//59 105//105 106//106
f 59//59 106//106 107//107
f 59//59 107//107 108//108
f 59//59 108//108 60//60
f 62//62 109//109 110//110
f 62//62 110//110 111//111
f 62//62 111//111 112//112
f 62//62 112//112 63//63
f 65//65 113//113 114//114
f 65//65 114//114 115//115
f 65//65 115//115 116//116
f 65//65 116//116 66//66
f 68//68 117//117 118//118
f 68//68 118//118 119//119
f 68//68 119//119 120//120
f 68//68 120//120 69//69
f 71//71 121//121 122//122
f 71//71 122//122 123//123
f 71//71 123//123 124//124
f 71//71 124//124 72//72
f 74//74 125//125 126//126
f 74//74 126//126 127//127
f 74//74 127//127 128//128
f 74//74 128//128 75//75
f 129//129 130//130 131//131
f 132//132 133//133 134//134
f 135//135 136//136 137//137
f 138//138 139//139 140//140
f 141//141 142//142 143//143
f 144//144 145//145 146//146
f 147//147 148//148 149//149
f 150//150 151//151 152//152
f 153//153 154//154 155//155
f 156//156 157//157 158//158
f 159//159 160//160 161//161
f 162//162 163//163 164//164
f 165//165 166//166 167//167
f 168//168 169//169 170//170
f 171//171 172//172 173//173
f 174//174 175//175 176//176

# Created by Open3D 
# object name: chair-t
# number of vertices: 176
# number of triangles: 84